<svg width="512" height="512" viewBox="0 0 100 100" xmlns="http://www.w3.org/2000/svg">
  <rect width="100" height="100" fill="#003399"/>
  
  <g fill="#FFCC00" stroke="#FFCC00" stroke-width="3.5" stroke-linecap="round">
    <g stroke="none">
      <circle cx="50" cy="15" r="3.5"/>
      <circle cx="67.5" cy="19.7" r="3.5"/>
      <circle cx="80.3" cy="32.5" r="3.5"/>
      <circle cx="85" cy="50" r="3.5"/>
      <circle cx="80.3" cy="67.5" r="3.5"/>
      <circle cx="67.5" cy="80.3" r="3.5"/>
      <circle cx="50" cy="85" r="3.5"/>
      <circle cx="32.5" cy="80.3" r="3.5"/>
      <circle cx="19.7" cy="67.5" r="3.5"/>
      <circle cx="15" cy="50" r="3.5"/>
      <circle cx="19.7" cy="32.5" r="3.5"/>
      <circle cx="32.5" cy="19.7" r="3.5"/>
    </g>

    <line x1="50" y1="50" x2="50" y2="30" />
    <line x1="50" y1="50" x2="67.3" y2="60" />
    <line x1="50" y1="50" x2="32.7" y2="60" />
    
    <g stroke="none">
      <circle cx="50" cy="50" r="4.5"/>
      <circle cx="50" cy="30" r="4.5"/>
      <circle cx="67.3" cy="60" r="4.5"/>
      <circle cx="32.7" cy="60" r="4.5"/>
    </g>
  </g>
</svg>
